<?xml version="1.0" standalone="no"?>
<!DOCTYPE svg PUBLIC "-//W3C//DTD SVG 20010904//EN"
 "http://www.w3.org/TR/2001/REC-SVG-20010904/DTD/svg10.dtd">
<svg version="1.0" xmlns="http://www.w3.org/2000/svg"
 width="71.000000pt" height="71.000000pt" viewBox="0 0 71.000000 71.000000"
 preserveAspectRatio="xMidYMid meet">
<metadata>
Created by potrace 1.14, written by Peter Selinger 2001-2017
</metadata>
<g transform="translate(0.000000,71.000000) scale(0.100000,-0.100000)"
fill="#000000" stroke="none">
<path d="M342 654 c-6 -11 -7 -27 -1 -42 13 -34 3 -40 -21 -12 -11 13 -20 19
-20 14 0 -5 -4 -4 -8 3 -8 13 -114 35 -122 25 -3 -4 -18 -8 -35 -10 -52 -4
-55 -5 -55 -13 0 -4 -8 -9 -17 -11 -16 -3 -16 -5 3 -24 12 -12 27 -23 35 -26
9 -3 4 -14 -15 -35 -15 -17 -27 -34 -26 -38 1 -3 -6 -17 -15 -31 -23 -35 -22
-146 0 -199 47 -109 231 -249 317 -241 83 8 232 124 285 221 23 43 27 62 27
128 0 57 -4 81 -15 88 -8 5 -10 9 -6 9 5 0 0 14 -10 30 -14 25 -15 32 -5 39
10 6 7 15 -13 39 -29 35 -77 54 -138 54 -53 0 -68 -4 -85 -20 -28 -25 -44 0
-31 47 6 21 -18 25 -29 5z"/>
</g>
</svg>
