<?xml version="1.0" encoding="UTF-8"?>
<svg xmlns="http://www.w3.org/2000/svg" width="48" height="48" viewBox="0 0 48 48" fill="none">
  <path d="M24 12C17.373 12 12 17.373 12 24C12 30.627 17.373 36 24 36C30.627 36 36 30.627 36 24C36 17.373 30.627 12 24 12ZM31.753 30.305C31.492 29.719 30.964 29.314 29.882 29.064C27.589 28.535 25.454 28.071 26.489 26.119C29.634 20.177 27.322 17 24 17C20.612 17 18.356 20.299 21.511 26.119C22.577 28.083 20.363 28.546 18.118 29.064C17.034 29.314 16.51 29.722 16.251 30.31C14.7941 28.5299 13.9987 26.3002 14 24C14 18.486 18.486 14 24 14C29.514 14 34 18.486 34 24C34.0011 26.298 33.2072 28.5256 31.753 30.305V30.305Z" fill="#262626"></path>
</svg>
