<?xml version="1.0" encoding="UTF-8"?>
<svg xmlns="http://www.w3.org/2000/svg" width="48" height="48" viewBox="0 0 48 48" fill="none">
  <g clip-path="url(#clip0)">
    <path d="M16.523 32.9989C16.523 33.8274 16.8158 34.5349 17.4014 35.1205C17.6762 35.4042 18.0063 35.6285 18.3712 35.7795C18.7361 35.9306 19.1281 36.0053 19.523 35.9989C20.3505 35.9989 21.058 35.7061 21.6436 35.1196C21.9272 34.8449 22.1514 34.515 22.3024 34.1502C22.4535 33.7855 22.5283 33.3937 22.522 32.9989C22.522 32.1705 22.2292 31.4629 21.6436 30.8773C21.3688 30.5937 21.0387 30.3694 20.6738 30.2184C20.3089 30.0673 19.9169 29.9926 19.522 29.9989C18.6945 29.9989 17.987 30.2917 17.4014 30.8783C17.1179 31.153 16.8937 31.4829 16.7426 31.8477C16.5915 32.2124 16.5168 32.6042 16.523 32.9989V32.9989ZM19.523 31.4985C19.9291 31.4985 20.2804 31.6473 20.5771 31.9439C20.8747 32.2415 21.0225 32.5929 21.0225 32.9989C21.0225 33.405 20.8737 33.7573 20.5771 34.054C20.2795 34.3506 19.9291 34.4985 19.523 34.4985C19.116 34.4985 18.7646 34.3506 18.467 34.054C18.3248 33.9178 18.212 33.7539 18.1356 33.5725C18.0591 33.391 18.0207 33.1958 18.0225 32.9989C18.0225 32.5929 18.1713 32.2405 18.468 31.9439C18.7656 31.6473 19.116 31.4994 19.522 31.4994L19.523 31.4985ZM25.523 32.9989C25.523 33.8274 25.8158 34.5349 26.4014 35.1205C26.6762 35.4042 27.0063 35.6285 27.3712 35.7795C27.7361 35.9306 28.1281 36.0053 28.523 35.9989C29.3505 35.9989 30.058 35.7061 30.6436 35.1196C30.9273 34.8449 31.1517 34.5151 31.303 34.1503C31.4542 33.7856 31.5291 33.3937 31.523 32.9989C31.523 32.1705 31.2292 31.4629 30.6436 30.8773C30.3688 30.5937 30.0387 30.3694 29.6738 30.2184C29.3089 30.0673 28.9169 29.9926 28.522 29.9989C27.6945 29.9989 26.987 30.2917 26.4014 30.8783C26.1179 31.153 25.8937 31.4829 25.7426 31.8477C25.5915 32.2124 25.5168 32.6042 25.523 32.9989V32.9989ZM28.522 31.4985C28.9291 31.4985 29.2804 31.6473 29.578 31.9439C29.8737 32.2415 30.0225 32.5929 30.0225 32.9989C30.0225 33.405 29.8737 33.7573 29.5771 34.054C29.2795 34.3506 28.9291 34.4985 28.522 34.4985C28.116 34.4985 27.7646 34.3506 27.468 34.054C27.3256 33.9179 27.2126 33.754 27.136 33.5726C27.0594 33.3911 27.0208 33.1959 27.0225 32.9989C27.0225 32.5929 27.1713 32.2405 27.468 31.9439C27.7656 31.6473 28.116 31.4994 28.523 31.4994L28.522 31.4985ZM18.0225 28.4994C17.6164 28.4994 17.2641 28.3516 16.9675 28.0549C16.8253 27.9188 16.7125 27.7549 16.636 27.5734C16.5596 27.392 16.5211 27.1968 16.523 26.9999L33.7723 25.4994L34.1236 24.07C34.3588 23.1167 34.6161 22.0511 34.8974 20.8713C35.1787 19.6905 35.4369 18.5865 35.6712 17.5545C35.9054 16.5234 36.0225 15.9225 36.0225 15.7497C36.0235 15.6511 36.0043 15.5534 35.966 15.4626C35.9276 15.3717 35.8711 15.2897 35.7998 15.2217C35.7316 15.1506 35.6496 15.0942 35.5588 15.056C35.468 15.0179 35.3703 14.9988 35.2718 14.9999H16.524V13.4985H17.2728C17.3713 13.4996 17.4689 13.4805 17.5598 13.4423C17.6506 13.4042 17.7326 13.3478 17.8008 13.2767C17.8721 13.2086 17.9286 13.1266 17.9669 13.0358C18.0052 12.945 18.0245 12.8473 18.0235 12.7487C18.0245 12.6501 18.0052 12.5524 17.9669 12.4616C17.9286 12.3708 17.8721 12.2888 17.8008 12.2207C17.7326 12.1496 17.6506 12.0932 17.5598 12.0551C17.4689 12.0169 17.3713 11.9978 17.2728 11.9989H12.7732C12.6747 11.998 12.577 12.0172 12.4861 12.0555C12.3953 12.0938 12.3133 12.1504 12.2452 12.2217C12.1741 12.2898 12.1178 12.3719 12.0796 12.4627C12.0415 12.5535 12.0224 12.6512 12.0235 12.7497C12.0226 12.8481 12.0419 12.9456 12.0802 13.0363C12.1185 13.1269 12.175 13.2087 12.2462 13.2767C12.3143 13.348 12.3963 13.4045 12.4871 13.4429C12.5779 13.4812 12.6756 13.5004 12.7742 13.4994H15.0235V26.9989C15.0235 27.8274 15.3163 28.5349 15.9028 29.1205C16.1776 29.4041 16.5075 29.6283 16.8722 29.7793C17.2369 29.9304 17.6288 30.0052 18.0235 29.9989H35.2737C35.2891 29.9989 35.2929 29.8425 35.2852 29.5305C35.2771 29.1865 35.2733 28.8425 35.2737 28.4985H18.0225V28.4994ZM16.522 16.4994H34.522L32.6011 24.1641L16.523 25.5004V16.4985L16.522 16.4994Z" fill="#262626"></path>
  </g>
  <defs>
    <clipPath id="clip0">
      <rect width="24" height="24" fill="white" transform="translate(12 12)"></rect>
    </clipPath>
  </defs>
</svg>
