<?xml version="1.0" encoding="UTF-8"?>
<svg xmlns="http://www.w3.org/2000/svg" width="16" height="16" viewBox="0 0 16 16" fill="none">
  <g clip-path="url(#clip0)">
    <path d="M0.292751 14.2933C0.105243 14.4808 -6.24672e-05 14.7352 4.88868e-08 15.0005C6.2565e-05 15.2657 0.105488 15.5201 0.293085 15.7076C0.480681 15.8951 0.735082 16.0004 1.00032 16.0003C1.26556 16.0003 1.51991 15.8948 1.70742 15.7073L7.88208 9.53325C7.89757 9.51773 7.91596 9.50542 7.93621 9.49701C7.95646 9.48861 7.97816 9.48429 8.00008 9.48429C8.02201 9.48429 8.04371 9.48861 8.06396 9.49701C8.08421 9.50542 8.1026 9.51773 8.11808 9.53325L14.2928 15.7086C14.3856 15.8015 14.4958 15.8752 14.6172 15.9255C14.7385 15.9757 14.8685 16.0016 14.9999 16.0017C15.1312 16.0017 15.2612 15.9759 15.3826 15.9256C15.5039 15.8754 15.6142 15.8018 15.7071 15.7089C15.8 15.6161 15.8737 15.5058 15.924 15.3845C15.9742 15.2632 16.0001 15.1332 16.0002 15.0018C16.0002 14.8705 15.9744 14.7404 15.9241 14.6191C15.8739 14.4977 15.8003 14.3875 15.7074 14.2946L9.53342 8.11792C9.5179 8.10244 9.50558 8.08404 9.49718 8.0638C9.48878 8.04355 9.48445 8.02184 9.48445 7.99992C9.48445 7.978 9.48878 7.95629 9.49718 7.93604C9.50558 7.91579 9.5179 7.8974 9.53342 7.88192L15.7088 1.70725C15.8963 1.51948 16.0015 1.26491 16.0013 0.999544C16.0011 0.73418 15.8955 0.479759 15.7078 0.292251C15.52 0.104743 15.2654 -0.000492459 15 -0.000304926C14.7347 -0.000117393 14.4803 0.105478 14.2928 0.293251L8.11808 6.46658C8.1026 6.48211 8.08421 6.49442 8.06396 6.50282C8.04371 6.51122 8.02201 6.51555 8.00008 6.51555C7.97816 6.51555 7.95646 6.51122 7.93621 6.50282C7.91596 6.49442 7.89757 6.48211 7.88208 6.46658L1.70742 0.293251C1.61457 0.200363 1.50434 0.126671 1.38302 0.0763836C1.26169 0.026096 1.13165 0.000197414 1.00032 0.000166461C0.735081 0.000103949 0.480681 0.10541 0.293085 0.292918C0.105488 0.480426 6.25399e-05 0.734776 2.78157e-08 1.00002C-6.24843e-05 1.26525 0.105243 1.51965 0.292751 1.70725L6.46675 7.88192C6.48227 7.8974 6.49459 7.91579 6.50299 7.93604C6.51139 7.95629 6.51572 7.978 6.51572 7.99992C6.51572 8.02184 6.51139 8.04355 6.50299 8.0638C6.49459 8.08404 6.48227 8.10244 6.46675 8.11792L0.292751 14.2933Z" fill="black"></path>
  </g>
  <defs>
    <clipPath id="clip0">
      <rect width="16" height="16" fill="white"></rect>
    </clipPath>
  </defs>
</svg>
