<?xml version="1.0" encoding="UTF-8"?>
<svg xmlns="http://www.w3.org/2000/svg" width="48" height="48" viewBox="0 0 48 48" fill="none">
  <path d="M14 24C14 24.3315 14.1317 24.6495 14.3661 24.8839C14.6005 25.1183 14.9185 25.25 15.25 25.25H22.5417C22.5969 25.25 22.6499 25.2719 22.689 25.311C22.7281 25.3501 22.75 25.4031 22.75 25.4583V32.75C22.75 33.0815 22.8817 33.3995 23.1161 33.6339C23.3505 33.8683 23.6685 34 24 34C24.3315 34 24.6495 33.8683 24.8839 33.6339C25.1183 33.3995 25.25 33.0815 25.25 32.75V25.4583C25.25 25.4031 25.2719 25.3501 25.311 25.311C25.3501 25.2719 25.4031 25.25 25.4583 25.25H32.75C33.0815 25.25 33.3995 25.1183 33.6339 24.8839C33.8683 24.6495 34 24.3315 34 24C34 23.6685 33.8683 23.3505 33.6339 23.1161C33.3995 22.8817 33.0815 22.75 32.75 22.75H25.4583C25.4031 22.75 25.3501 22.7281 25.311 22.689C25.2719 22.6499 25.25 22.5969 25.25 22.5417V15.25C25.25 14.9185 25.1183 14.6005 24.8839 14.3661C24.6495 14.1317 24.3315 14 24 14C23.6685 14 23.3505 14.1317 23.1161 14.3661C22.8817 14.6005 22.75 14.9185 22.75 15.25V22.5417C22.75 22.5969 22.7281 22.6499 22.689 22.689C22.6499 22.7281 22.5969 22.75 22.5417 22.75H15.25C14.9185 22.75 14.6005 22.8817 14.3661 23.1161C14.1317 23.3505 14 23.6685 14 24V24Z" fill="#262626"></path>
</svg>
